<svg width="213" height="72" viewBox="0 0 213 72" fill="none" xmlns="http://www.w3.org/2000/svg">
<path d="M102.761 69.6509C102.297 69.6509 101.852 69.5857 101.427 69.4554C101.002 69.3194 100.665 69.1465 100.415 68.9369L100.798 68.0784C101.036 68.2654 101.331 68.4212 101.682 68.5459C102.033 68.6705 102.393 68.7329 102.761 68.7329C103.073 68.7329 103.325 68.6989 103.518 68.6309C103.711 68.5629 103.852 68.4722 103.943 68.3589C104.034 68.2399 104.079 68.1067 104.079 67.9594C104.079 67.778 104.014 67.6335 103.883 67.5259C103.753 67.4125 103.583 67.3247 103.373 67.2624C103.169 67.1944 102.94 67.132 102.685 67.0754C102.436 67.0187 102.183 66.9535 101.928 66.8799C101.679 66.8005 101.45 66.7014 101.24 66.5824C101.036 66.4577 100.869 66.2934 100.738 66.0894C100.608 65.8854 100.543 65.6247 100.543 65.3074C100.543 64.9844 100.628 64.6897 100.798 64.4234C100.974 64.1514 101.237 63.936 101.588 63.7774C101.945 63.613 102.396 63.5309 102.94 63.5309C103.297 63.5309 103.651 63.5762 104.002 63.6669C104.354 63.7575 104.66 63.8879 104.92 64.0579L104.572 64.9164C104.306 64.7577 104.031 64.6415 103.747 64.5679C103.464 64.4885 103.192 64.4489 102.931 64.4489C102.625 64.4489 102.376 64.4857 102.183 64.5594C101.996 64.633 101.858 64.7294 101.767 64.8484C101.682 64.9674 101.639 65.1034 101.639 65.2564C101.639 65.4377 101.702 65.585 101.826 65.6984C101.957 65.806 102.124 65.891 102.328 65.9534C102.538 66.0157 102.77 66.078 103.025 66.1404C103.28 66.197 103.532 66.2622 103.781 66.3359C104.036 66.4095 104.266 66.5059 104.47 66.6249C104.68 66.7439 104.847 66.9054 104.971 67.1094C105.102 67.3134 105.167 67.5712 105.167 67.8829C105.167 68.2002 105.079 68.4949 104.903 68.7669C104.733 69.0332 104.47 69.2485 104.113 69.4129C103.756 69.5715 103.305 69.6509 102.761 69.6509ZM109.051 69.6509C108.586 69.6509 108.158 69.5744 107.767 69.4214C107.376 69.2684 107.036 69.0559 106.747 68.7839C106.458 68.5062 106.234 68.1832 106.076 67.8149C105.917 67.4409 105.838 67.0329 105.838 66.5909C105.838 66.1489 105.917 65.7437 106.076 65.3754C106.234 65.0014 106.458 64.6784 106.747 64.4064C107.036 64.1287 107.376 63.9134 107.767 63.7604C108.158 63.6074 108.583 63.5309 109.042 63.5309C109.507 63.5309 109.932 63.6074 110.317 63.7604C110.708 63.9134 111.048 64.1287 111.337 64.4064C111.626 64.6784 111.85 65.0014 112.009 65.3754C112.167 65.7437 112.247 66.1489 112.247 66.5909C112.247 67.0329 112.167 67.4409 112.009 67.8149C111.85 68.1889 111.626 68.5119 111.337 68.7839C111.048 69.0559 110.708 69.2684 110.317 69.4214C109.932 69.5744 109.51 69.6509 109.051 69.6509ZM109.042 68.6819C109.342 68.6819 109.62 68.6309 109.875 68.5289C110.13 68.4269 110.351 68.2824 110.538 68.0954C110.725 67.9027 110.87 67.6817 110.972 67.4324C111.079 67.1774 111.133 66.8969 111.133 66.5909C111.133 66.2849 111.079 66.0072 110.972 65.7579C110.87 65.5029 110.725 65.2819 110.538 65.0949C110.351 64.9022 110.13 64.7549 109.875 64.6529C109.62 64.5509 109.342 64.4999 109.042 64.4999C108.742 64.4999 108.464 64.5509 108.209 64.6529C107.96 64.7549 107.739 64.9022 107.546 65.0949C107.359 65.2819 107.212 65.5029 107.104 65.7579C107.002 66.0072 106.951 66.2849 106.951 66.5909C106.951 66.8912 107.002 67.1689 107.104 67.4239C107.212 67.6789 107.359 67.9027 107.546 68.0954C107.733 68.2824 107.954 68.4269 108.209 68.5289C108.464 68.6309 108.742 68.6819 109.042 68.6819ZM113.418 69.5659V63.6159H114.523V68.6309H117.634V69.5659H113.418ZM120.982 69.6509C120.166 69.6509 119.525 69.4214 119.061 68.9624C118.602 68.5034 118.372 67.8404 118.372 66.9734V63.6159H119.477V66.9309C119.477 67.5429 119.608 67.9877 119.868 68.2654C120.135 68.543 120.509 68.6819 120.99 68.6819C121.472 68.6819 121.843 68.543 122.104 68.2654C122.364 67.9877 122.495 67.5429 122.495 66.9309V63.6159H123.583V66.9734C123.583 67.8404 123.35 68.5034 122.886 68.9624C122.427 69.4214 121.792 69.6509 120.982 69.6509ZM127.884 69.6509C127.431 69.6509 127.009 69.5772 126.618 69.4299C126.232 69.2769 125.895 69.0644 125.606 68.7924C125.323 68.5147 125.102 68.1889 124.943 67.8149C124.785 67.4409 124.705 67.0329 124.705 66.5909C124.705 66.1489 124.785 65.7409 124.943 65.3669C125.102 64.9929 125.326 64.6699 125.615 64.3979C125.904 64.1202 126.241 63.9077 126.626 63.7604C127.012 63.6074 127.434 63.5309 127.893 63.5309C128.38 63.5309 128.825 63.6159 129.227 63.7859C129.63 63.9502 129.97 64.1967 130.247 64.5254L129.533 65.1969C129.318 64.9645 129.077 64.7917 128.811 64.6784C128.544 64.5594 128.255 64.4999 127.944 64.4999C127.632 64.4999 127.346 64.5509 127.085 64.6529C126.83 64.7549 126.606 64.8994 126.414 65.0864C126.227 65.2734 126.079 65.4944 125.972 65.7494C125.87 66.0044 125.819 66.2849 125.819 66.5909C125.819 66.8969 125.87 67.1774 125.972 67.4324C126.079 67.6874 126.227 67.9084 126.414 68.0954C126.606 68.2824 126.83 68.4269 127.085 68.5289C127.346 68.6309 127.632 68.6819 127.944 68.6819C128.255 68.6819 128.544 68.6252 128.811 68.5119C129.077 68.3929 129.318 68.2144 129.533 67.9764L130.247 68.6564C129.97 68.9794 129.63 69.2259 129.227 69.3959C128.825 69.5659 128.377 69.6509 127.884 69.6509ZM127.485 71.5039C127.332 71.5039 127.19 71.4869 127.06 71.4529C126.929 71.4245 126.81 71.382 126.703 71.3254L126.898 70.8239C126.989 70.8692 127.08 70.9032 127.17 70.9259C127.267 70.9485 127.369 70.9599 127.476 70.9599C127.641 70.9599 127.757 70.9315 127.825 70.8749C127.893 70.8182 127.927 70.7445 127.927 70.6539C127.927 70.5689 127.89 70.5009 127.816 70.4499C127.748 70.3989 127.635 70.3734 127.476 70.3734H127.213L127.442 69.5064H128.02L127.901 69.9824C128.151 70.0107 128.335 70.09 128.454 70.2204C128.578 70.3564 128.641 70.515 128.641 70.6964C128.641 70.9457 128.536 71.1412 128.326 71.2829C128.117 71.4302 127.836 71.5039 127.485 71.5039ZM133.97 69.6509C133.505 69.6509 133.077 69.5744 132.686 69.4214C132.295 69.2684 131.955 69.0559 131.666 68.7839C131.377 68.5062 131.153 68.1832 130.995 67.8149C130.836 67.4409 130.757 67.0329 130.757 66.5909C130.757 66.1489 130.836 65.7437 130.995 65.3754C131.153 65.0014 131.377 64.6784 131.666 64.4064C131.955 64.1287 132.295 63.9134 132.686 63.7604C133.077 63.6074 133.502 63.5309 133.961 63.5309C134.426 63.5309 134.851 63.6074 135.236 63.7604C135.627 63.9134 135.967 64.1287 136.256 64.4064C136.545 64.6784 136.769 65.0014 136.928 65.3754C137.086 65.7437 137.166 66.1489 137.166 66.5909C137.166 67.0329 137.086 67.4409 136.928 67.8149C136.769 68.1889 136.545 68.5119 136.256 68.7839C135.967 69.0559 135.627 69.2684 135.236 69.4214C134.851 69.5744 134.429 69.6509 133.97 69.6509ZM133.961 68.6819C134.261 68.6819 134.539 68.6309 134.794 68.5289C135.049 68.4269 135.27 68.2824 135.457 68.0954C135.644 67.9027 135.789 67.6817 135.891 67.4324C135.998 67.1774 136.052 66.8969 136.052 66.5909C136.052 66.2849 135.998 66.0072 135.891 65.7579C135.789 65.5029 135.644 65.2819 135.457 65.0949C135.27 64.9022 135.049 64.7549 134.794 64.6529C134.539 64.5509 134.261 64.4999 133.961 64.4999C133.661 64.4999 133.383 64.5509 133.128 64.6529C132.879 64.7549 132.658 64.9022 132.465 65.0949C132.278 65.2819 132.131 65.5029 132.023 65.7579C131.921 66.0072 131.87 66.2849 131.87 66.5909C131.87 66.8912 131.921 67.1689 132.023 67.4239C132.131 67.6789 132.278 67.9027 132.465 68.0954C132.652 68.2824 132.873 68.4269 133.128 68.5289C133.383 68.6309 133.661 68.6819 133.961 68.6819ZM134.573 63.1314C134.437 63.1314 134.312 63.1059 134.199 63.0549C134.091 62.9982 133.992 62.933 133.902 62.8594C133.817 62.78 133.734 62.712 133.655 62.6554C133.576 62.5987 133.496 62.5704 133.417 62.5704C133.298 62.5704 133.202 62.6157 133.128 62.7064C133.054 62.797 133.012 62.9217 133.001 63.0804H132.431C132.442 62.729 132.527 62.4514 132.686 62.2474C132.85 62.0434 133.071 61.9414 133.349 61.9414C133.485 61.9414 133.61 61.9697 133.723 62.0264C133.836 62.083 133.936 62.1482 134.021 62.2219C134.111 62.2955 134.196 62.3607 134.276 62.4174C134.355 62.474 134.431 62.5024 134.505 62.5024C134.624 62.5024 134.72 62.4599 134.794 62.3749C134.873 62.2899 134.916 62.1709 134.922 62.0179H135.491C135.485 62.3465 135.4 62.6157 135.236 62.8254C135.072 63.0294 134.851 63.1314 134.573 63.1314ZM139.357 66.0894H142.315V66.9989H139.357V66.0894ZM139.442 68.6394H142.799V69.5659H138.337V63.6159H142.68V64.5424H139.442V68.6394ZM145.876 69.6509C145.411 69.6509 144.966 69.5857 144.541 69.4554C144.116 69.3194 143.779 69.1465 143.53 68.9369L143.912 68.0784C144.15 68.2654 144.445 68.4212 144.796 68.5459C145.147 68.6705 145.507 68.7329 145.876 68.7329C146.187 68.7329 146.439 68.6989 146.632 68.6309C146.825 68.5629 146.966 68.4722 147.057 68.3589C147.148 68.2399 147.193 68.1067 147.193 67.9594C147.193 67.778 147.128 67.6335 146.998 67.5259C146.867 67.4125 146.697 67.3247 146.488 67.2624C146.284 67.1944 146.054 67.132 145.799 67.0754C145.55 67.0187 145.298 66.9535 145.043 66.8799C144.793 66.8005 144.564 66.7014 144.354 66.5824C144.15 66.4577 143.983 66.2934 143.853 66.0894C143.722 65.8854 143.657 65.6247 143.657 65.3074C143.657 64.9844 143.742 64.6897 143.912 64.4234C144.088 64.1514 144.351 63.936 144.703 63.7774C145.06 63.613 145.51 63.5309 146.054 63.5309C146.411 63.5309 146.765 63.5762 147.117 63.6669C147.468 63.7575 147.774 63.8879 148.035 64.0579L147.686 64.9164C147.42 64.7577 147.145 64.6415 146.862 64.5679C146.578 64.4885 146.306 64.4489 146.046 64.4489C145.74 64.4489 145.49 64.4857 145.298 64.5594C145.111 64.633 144.972 64.7294 144.881 64.8484C144.796 64.9674 144.754 65.1034 144.754 65.2564C144.754 65.4377 144.816 65.585 144.941 65.6984C145.071 65.806 145.238 65.891 145.442 65.9534C145.652 66.0157 145.884 66.078 146.139 66.1404C146.394 66.197 146.646 66.2622 146.896 66.3359C147.151 66.4095 147.38 66.5059 147.584 66.6249C147.794 66.7439 147.961 66.9054 148.086 67.1094C148.216 67.3134 148.281 67.5712 148.281 67.8829C148.281 68.2002 148.193 68.4949 148.018 68.7669C147.848 69.0332 147.584 69.2485 147.227 69.4129C146.87 69.5715 146.42 69.6509 145.876 69.6509ZM154.48 69.6509C154.027 69.6509 153.604 69.5772 153.213 69.4299C152.828 69.2769 152.491 69.0644 152.202 68.7924C151.919 68.5147 151.698 68.1889 151.539 67.8149C151.38 67.4409 151.301 67.0329 151.301 66.5909C151.301 66.1489 151.38 65.7409 151.539 65.3669C151.698 64.9929 151.921 64.6699 152.21 64.3979C152.499 64.1202 152.837 63.9077 153.222 63.7604C153.607 63.6074 154.029 63.5309 154.488 63.5309C154.976 63.5309 155.421 63.6159 155.823 63.7859C156.225 63.9502 156.565 64.1967 156.843 64.5254L156.129 65.1969C155.914 64.9645 155.673 64.7917 155.406 64.6784C155.14 64.5594 154.851 64.4999 154.539 64.4999C154.228 64.4999 153.942 64.5509 153.681 64.6529C153.426 64.7549 153.202 64.8994 153.009 65.0864C152.822 65.2734 152.675 65.4944 152.567 65.7494C152.465 66.0044 152.414 66.2849 152.414 66.5909C152.414 66.8969 152.465 67.1774 152.567 67.4324C152.675 67.6874 152.822 67.9084 153.009 68.0954C153.202 68.2824 153.426 68.4269 153.681 68.5289C153.942 68.6309 154.228 68.6819 154.539 68.6819C154.851 68.6819 155.14 68.6252 155.406 68.5119C155.673 68.3929 155.914 68.2144 156.129 67.9764L156.843 68.6564C156.565 68.9794 156.225 69.2259 155.823 69.3959C155.421 69.5659 154.973 69.6509 154.48 69.6509ZM160.565 69.6509C160.101 69.6509 159.673 69.5744 159.282 69.4214C158.891 69.2684 158.551 69.0559 158.262 68.7839C157.973 68.5062 157.749 68.1832 157.59 67.8149C157.432 67.4409 157.352 67.0329 157.352 66.5909C157.352 66.1489 157.432 65.7437 157.59 65.3754C157.749 65.0014 157.973 64.6784 158.262 64.4064C158.551 64.1287 158.891 63.9134 159.282 63.7604C159.673 63.6074 160.098 63.5309 160.557 63.5309C161.021 63.5309 161.446 63.6074 161.832 63.7604C162.223 63.9134 162.563 64.1287 162.852 64.4064C163.141 64.6784 163.365 65.0014 163.523 65.3754C163.682 65.7437 163.761 66.1489 163.761 66.5909C163.761 67.0329 163.682 67.4409 163.523 67.8149C163.365 68.1889 163.141 68.5119 162.852 68.7839C162.563 69.0559 162.223 69.2684 161.832 69.4214C161.446 69.5744 161.024 69.6509 160.565 69.6509ZM160.557 68.6819C160.857 68.6819 161.135 68.6309 161.39 68.5289C161.645 68.4269 161.866 68.2824 162.053 68.0954C162.24 67.9027 162.384 67.6817 162.486 67.4324C162.594 67.1774 162.648 66.8969 162.648 66.5909C162.648 66.2849 162.594 66.0072 162.486 65.7579C162.384 65.5029 162.24 65.2819 162.053 65.0949C161.866 64.9022 161.645 64.7549 161.39 64.6529C161.135 64.5509 160.857 64.4999 160.557 64.4999C160.256 64.4999 159.979 64.5509 159.724 64.6529C159.474 64.7549 159.253 64.9022 159.061 65.0949C158.874 65.2819 158.726 65.5029 158.619 65.7579C158.517 66.0072 158.466 66.2849 158.466 66.5909C158.466 66.8912 158.517 67.1689 158.619 67.4239C158.726 67.6789 158.874 67.9027 159.061 68.0954C159.248 68.2824 159.469 68.4269 159.724 68.5289C159.979 68.6309 160.256 68.6819 160.557 68.6819ZM164.933 69.5659V63.6159H165.842L169.574 68.1974H169.123V63.6159H170.22V69.5659H169.31L165.579 64.9844H166.029V69.5659H164.933ZM173.021 69.5659V64.5509H171.049V63.6159H176.098V64.5509H174.126V69.5659H173.021ZM175.787 69.5659L178.464 63.6159H179.552L182.238 69.5659H181.082L178.779 64.2024H179.221L176.926 69.5659H175.787ZM177.019 68.1889L177.317 67.3219H180.53L180.827 68.1889H177.019ZM178.294 63.1314L179.442 61.9669H180.691L179.212 63.1314H178.294ZM182.995 69.5659V63.6159H185.783C186.497 63.6159 187.041 63.7575 187.415 64.0409C187.789 64.3185 187.976 64.6925 187.976 65.1629C187.976 65.4802 187.902 65.7522 187.755 65.9789C187.608 66.1999 187.409 66.3727 187.16 66.4974C186.916 66.6164 186.65 66.6759 186.361 66.6759L186.514 66.3699C186.848 66.3699 187.149 66.4322 187.415 66.5569C187.681 66.6759 187.891 66.8515 188.044 67.0839C188.203 67.3162 188.282 67.6052 188.282 67.9509C188.282 68.4609 188.087 68.8575 187.696 69.1409C187.305 69.4242 186.724 69.5659 185.953 69.5659H182.995ZM184.1 68.6989H185.885C186.299 68.6989 186.616 68.6309 186.837 68.4949C187.058 68.3589 187.169 68.1407 187.169 67.8404C187.169 67.5457 187.058 67.3304 186.837 67.1944C186.616 67.0527 186.299 66.9819 185.885 66.9819H184.015V66.1234H185.664C186.049 66.1234 186.344 66.0554 186.548 65.9194C186.758 65.7834 186.863 65.5794 186.863 65.3074C186.863 65.0297 186.758 64.8229 186.548 64.6869C186.344 64.5509 186.049 64.4829 185.664 64.4829H184.1V68.6989ZM190.481 66.0894H193.439V66.9989H190.481V66.0894ZM190.566 68.6394H193.924V69.5659H189.461V63.6159H193.805V64.5424H190.566V68.6394ZM195.156 69.5659V63.6159H196.261V69.5659H195.156ZM199.715 69.6509C199.25 69.6509 198.805 69.5857 198.38 69.4554C197.955 69.3194 197.618 69.1465 197.369 68.9369L197.751 68.0784C197.989 68.2654 198.284 68.4212 198.635 68.5459C198.986 68.6705 199.346 68.7329 199.715 68.7329C200.026 68.7329 200.278 68.6989 200.471 68.6309C200.664 68.5629 200.805 68.4722 200.896 68.3589C200.987 68.2399 201.032 68.1067 201.032 67.9594C201.032 67.778 200.967 67.6335 200.837 67.5259C200.706 67.4125 200.536 67.3247 200.327 67.2624C200.123 67.1944 199.893 67.132 199.638 67.0754C199.389 67.0187 199.137 66.9535 198.882 66.8799C198.632 66.8005 198.403 66.7014 198.193 66.5824C197.989 66.4577 197.822 66.2934 197.692 66.0894C197.561 65.8854 197.496 65.6247 197.496 65.3074C197.496 64.9844 197.581 64.6897 197.751 64.4234C197.927 64.1514 198.19 63.936 198.542 63.7774C198.899 63.613 199.349 63.5309 199.893 63.5309C200.25 63.5309 200.604 63.5762 200.956 63.6669C201.307 63.7575 201.613 63.8879 201.874 64.0579L201.525 64.9164C201.259 64.7577 200.984 64.6415 200.701 64.5679C200.417 64.4885 200.145 64.4489 199.885 64.4489C199.579 64.4489 199.329 64.4857 199.137 64.5594C198.95 64.633 198.811 64.7294 198.72 64.8484C198.635 64.9674 198.593 65.1034 198.593 65.2564C198.593 65.4377 198.655 65.585 198.78 65.6984C198.91 65.806 199.077 65.891 199.281 65.9534C199.491 66.0157 199.723 66.078 199.978 66.1404C200.233 66.197 200.485 66.2622 200.735 66.3359C200.99 66.4095 201.219 66.5059 201.423 66.6249C201.633 66.7439 201.8 66.9054 201.925 67.1094C202.055 67.3134 202.12 67.5712 202.12 67.8829C202.12 68.2002 202.032 68.4949 201.857 68.7669C201.687 69.0332 201.423 69.2485 201.066 69.4129C200.709 69.5715 200.259 69.6509 199.715 69.6509Z" fill="#494443"/>
<rect x="198.601" y="0.5" width="13.4403" height="52.5926" rx="1.25" fill="#494443"/>
<path d="M157.614 0.5C158.138 0.5 158.586 0.822465 158.772 1.27967C158.83 1.42261 158.881 1.56968 158.964 1.6998L175.844 28.1948C176.516 29.2492 178.148 28.7733 178.148 27.5231V1.75C178.148 1.05964 178.708 0.5 179.398 0.5H190.339C191.029 0.500153 191.589 1.05974 191.589 1.75V51.8428C191.589 52.533 191.029 53.0926 190.339 53.0928H177.645C177.121 53.0928 176.672 52.7699 176.486 52.3122C176.428 52.1686 176.376 52.0208 176.293 51.8901L156.493 20.8087C155.822 19.7542 154.189 20.23 154.189 21.4803V51.8428C154.189 52.533 153.629 53.0927 152.939 53.0928H141.999C141.308 53.0928 140.749 52.533 140.749 51.8428V1.75C140.749 1.05964 141.308 0.5 141.999 0.5H157.614Z" fill="#494443"/>
<path d="M102.684 0.5C102.736 0.500004 102.787 0.503612 102.837 0.509766L122.341 1.08398C130.409 1.08426 136.95 7.62534 136.951 15.6934C136.951 23.761 130.411 30.3009 122.343 30.3018C122.343 30.3018 122.342 30.3019 122.342 30.3023V30.3023C122.341 30.3026 122.341 30.3027 122.341 30.3028L120.589 30.4041C119.505 30.4668 119.011 31.786 119.787 32.5453L132.202 44.6963C132.218 44.7114 132.236 44.7261 132.252 44.7422L137.46 49.9512C137.695 50.1856 137.827 50.5034 137.827 50.835V51.8428C137.827 52.533 137.267 53.0928 136.577 53.0928H124.273C124.118 53.0928 123.964 53.1289 123.811 53.1574C123.425 53.2294 123.012 53.1189 122.709 52.8242L106.057 36.5881C105.265 35.816 103.934 36.3771 103.934 37.4831V51.8428C103.934 52.533 103.374 53.0927 102.684 53.0928H91.7437C91.0534 53.0928 90.4937 52.533 90.4937 51.8428V1.75C90.4937 1.05964 91.0533 0.5 91.7437 0.5H102.684ZM103.934 21.4561C103.934 22.1464 104.494 22.7061 105.184 22.7061H109.524C109.524 22.7061 109.525 22.7057 109.524 22.7056V22.7056C109.524 22.7054 109.524 22.7051 109.525 22.7051H117.083C120.148 22.7048 122.634 20.2199 122.634 17.1543C122.634 14.1843 120.301 11.7581 117.368 11.6094L117.083 11.6025H105.184C104.494 11.6025 103.934 12.1622 103.934 12.8525V21.4561Z" fill="#494443"/>
<path d="M17.3014 20.4249C17.7263 20.4249 18.1221 20.641 18.3522 20.9982L48.7858 68.2726C49.3207 69.1043 48.7239 70.198 47.735 70.1984H38.4977C38.0726 70.1984 37.677 69.9825 37.4469 69.6251L7.01331 22.3517C6.47789 21.5198 7.07578 20.4249 8.06506 20.4249H17.3014ZM21.7242 0.605591C22.1498 0.605752 22.5462 0.822548 22.776 1.18079L65.7828 68.2745C66.316 69.1064 65.7191 70.1982 64.7311 70.1984H55.4899C55.0641 70.1982 54.6679 69.9816 54.4381 69.6232L11.4313 2.5304C10.898 1.69848 11.4949 0.605732 12.483 0.605591H21.7242ZM59.569 0.606567H59.5699C74.4301 0.666317 82.7807 9.72345 82.7809 22.381C83.0998 33.0932 76.9306 40.313 69.0524 43.507C68.2986 43.8125 67.9723 44.7259 68.4088 45.4122L82.9596 68.2775C83.4891 69.1096 82.8912 70.1983 81.9049 70.1984H72.6588C72.2313 70.1984 71.8326 69.98 71.6031 69.6193L52.1403 39.0118L52.1481 38.9982L51.027 37.2355C50.5394 36.4691 51.0894 35.4662 51.9977 35.4659H58.7076C58.7111 35.4659 58.7143 35.4635 58.7145 35.4601C58.7145 35.4566 58.7169 35.4534 58.7203 35.4532C66.1997 35.1673 72.1634 29.777 72.1637 23.1681C72.1635 16.711 66.471 11.4161 59.234 10.9093L34.609 10.923C34.1813 10.9232 33.7829 10.7048 33.5533 10.3439L28.5836 2.52649C28.0547 1.69438 28.6523 0.605757 29.6383 0.605591H59.568L59.569 0.606567ZM11.4576 39.004C11.885 39.004 12.2829 39.2226 12.5123 39.5831L30.7408 68.2286C31.2704 69.0608 30.6725 70.1505 29.6862 70.1505H20.4391C20.0118 70.1505 19.6138 69.9319 19.3844 69.5714L1.15588 40.9249C0.626927 40.0929 1.22458 39.0042 2.21057 39.004H11.4576Z" fill="url(#paint0_linear_10_3)"/>
<defs>
<linearGradient id="paint0_linear_10_3" x1="0.912953" y1="0.500017" x2="82.7766" y2="70.6725" gradientUnits="userSpaceOnUse">
<stop stop-color="#ED770D"/>
<stop offset="1" stop-color="#F29600"/>
</linearGradient>
</defs>
</svg>
