<svg width="29" height="25" viewBox="0 0 29 25" fill="none" xmlns="http://www.w3.org/2000/svg">
<path d="M5.37117 7.33496C5.58359 7.33506 5.78158 7.44345 5.89656 7.62207L16.1417 23.5361C16.4094 23.9521 16.1109 24.5 15.6163 24.5H12.8927C12.6801 24.5 12.4813 24.3916 12.3663 24.2129L2.12117 8.29785C1.85377 7.88202 2.15214 7.33511 2.64656 7.33496H5.37117ZM6.89559 0.5C7.10854 0.5 7.30703 0.608801 7.42195 0.788086L22.005 23.5371C22.2716 23.9531 21.9726 24.4999 21.4786 24.5H18.752C18.5393 24.4998 18.3415 24.391 18.2266 24.2119L3.64363 1.46191C3.37729 1.04596 3.676 0.5 4.17 0.5H6.89559ZM20.0538 0.5C25.1783 0.520696 28.0576 3.64476 28.0577 8.00977C28.1645 11.5996 26.1575 14.0504 23.5509 15.1963C23.1788 15.3601 23.0154 15.8161 23.2335 16.1592L27.9298 23.54C28.1942 23.9561 27.8955 24.5 27.4024 24.5H24.6729C24.4594 24.4998 24.2602 24.3911 24.1456 24.2109L17.4913 13.7451C17.4906 13.744 17.491 13.7422 17.4923 13.7422C17.4935 13.7422 17.4937 13.7413 17.4932 13.7402L17.1075 13.1328C16.9395 12.8686 17.1293 12.5225 17.4425 12.5225H19.7559L19.7618 12.5166C22.3405 12.4173 24.3965 10.559 24.3966 8.28027C24.3962 6.04449 22.4166 4.21443 19.9063 4.05273L11.5528 4.05762C11.3389 4.05774 11.1393 3.94804 11.0245 3.76758L9.55672 1.46094C9.29208 1.04485 9.59193 0.5 10.085 0.5H20.0538ZM3.35457 13.7422C3.56811 13.7422 3.76715 13.8512 3.88191 14.0312L9.92195 23.5225C10.1866 23.9385 9.88761 24.4832 9.39461 24.4834H6.66512C6.45148 24.4834 6.25247 24.3736 6.13777 24.1934L0.098711 14.7031C-0.166055 14.287 0.132879 13.7422 0.626055 13.7422H3.35457Z" fill="url(#paint0_linear_3_4)"/>
<defs>
<linearGradient id="paint0_linear_3_4" x1="-0.0155115" y1="0.463592" x2="28.1712" y2="24.3816" gradientUnits="userSpaceOnUse">
<stop stop-color="#ED770D"/>
<stop offset="1" stop-color="#F29600"/>
</linearGradient>
</defs>
</svg>
